# 键盘模板 — 由 generate-keyboard-obj.mjs 生成，供 Spline 导入
o body
v -320.00 0.00 -260.00
v 320.00 0.00 -260.00
v 320.00 0.00 260.00
v -320.00 0.00 260.00
v -320.00 30.00 -260.00
v 320.00 30.00 -260.00
v 320.00 30.00 260.00
v -320.00 30.00 260.00
f 1 2 3
f 1 3 4
f 5 7 6
f 5 8 7
f 1 5 6
f 1 6 2
f 4 3 7
f 4 7 8
f 1 4 8
f 1 8 5
f 3 2 6
f 3 6 7
o js
v -290.00 30.00 -230.00
v -190.00 30.00 -230.00
v -190.00 30.00 -130.00
v -290.00 30.00 -130.00
v -281.00 70.00 -221.00
v -199.00 70.00 -221.00
v -199.00 70.00 -139.00
v -281.00 70.00 -139.00
f 9 10 11
f 9 11 12
f 13 15 14
f 13 16 15
f 9 13 14
f 9 14 10
f 12 11 15
f 12 15 16
f 9 12 16
f 9 16 13
f 11 10 14
f 11 14 15
o ts
v -170.00 30.00 -230.00
v -70.00 30.00 -230.00
v -70.00 30.00 -130.00
v -170.00 30.00 -130.00
v -161.00 70.00 -221.00
v -79.00 70.00 -221.00
v -79.00 70.00 -139.00
v -161.00 70.00 -139.00
f 17 18 19
f 17 19 20
f 21 23 22
f 21 24 23
f 17 21 22
f 17 22 18
f 20 19 23
f 20 23 24
f 17 20 24
f 17 24 21
f 19 18 22
f 19 22 23
o html
v -50.00 30.00 -230.00
v 50.00 30.00 -230.00
v 50.00 30.00 -130.00
v -50.00 30.00 -130.00
v -41.00 70.00 -221.00
v 41.00 70.00 -221.00
v 41.00 70.00 -139.00
v -41.00 70.00 -139.00
f 25 26 27
f 25 27 28
f 29 31 30
f 29 32 31
f 25 29 30
f 25 30 26
f 28 27 31
f 28 31 32
f 25 28 32
f 25 32 29
f 27 26 30
f 27 30 31
o css
v 70.00 30.00 -230.00
v 170.00 30.00 -230.00
v 170.00 30.00 -130.00
v 70.00 30.00 -130.00
v 79.00 70.00 -221.00
v 161.00 70.00 -221.00
v 161.00 70.00 -139.00
v 79.00 70.00 -139.00
f 33 34 35
f 33 35 36
f 37 39 38
f 37 40 39
f 33 37 38
f 33 38 34
f 36 35 39
f 36 39 40
f 33 36 40
f 33 40 37
f 35 34 38
f 35 38 39
o react
v 190.00 30.00 -230.00
v 290.00 30.00 -230.00
v 290.00 30.00 -130.00
v 190.00 30.00 -130.00
v 199.00 70.00 -221.00
v 281.00 70.00 -221.00
v 281.00 70.00 -139.00
v 199.00 70.00 -139.00
f 41 42 43
f 41 43 44
f 45 47 46
f 45 48 47
f 41 45 46
f 41 46 42
f 44 43 47
f 44 47 48
f 41 44 48
f 41 48 45
f 43 42 46
f 43 46 47
o vue
v -290.00 30.00 -110.00
v -190.00 30.00 -110.00
v -190.00 30.00 -10.00
v -290.00 30.00 -10.00
v -281.00 70.00 -101.00
v -199.00 70.00 -101.00
v -199.00 70.00 -19.00
v -281.00 70.00 -19.00
f 49 50 51
f 49 51 52
f 53 55 54
f 53 56 55
f 49 53 54
f 49 54 50
f 52 51 55
f 52 55 56
f 49 52 56
f 49 56 53
f 51 50 54
f 51 54 55
o nextjs
v -170.00 30.00 -110.00
v -70.00 30.00 -110.00
v -70.00 30.00 -10.00
v -170.00 30.00 -10.00
v -161.00 70.00 -101.00
v -79.00 70.00 -101.00
v -79.00 70.00 -19.00
v -161.00 70.00 -19.00
f 57 58 59
f 57 59 60
f 61 63 62
f 61 64 63
f 57 61 62
f 57 62 58
f 60 59 63
f 60 63 64
f 57 60 64
f 57 64 61
f 59 58 62
f 59 62 63
o tailwind
v -50.00 30.00 -110.00
v 50.00 30.00 -110.00
v 50.00 30.00 -10.00
v -50.00 30.00 -10.00
v -41.00 70.00 -101.00
v 41.00 70.00 -101.00
v 41.00 70.00 -19.00
v -41.00 70.00 -19.00
f 65 66 67
f 65 67 68
f 69 71 70
f 69 72 71
f 65 69 70
f 65 70 66
f 68 67 71
f 68 71 72
f 65 68 72
f 65 72 69
f 67 66 70
f 67 70 71
o nodejs
v 70.00 30.00 -110.00
v 170.00 30.00 -110.00
v 170.00 30.00 -10.00
v 70.00 30.00 -10.00
v 79.00 70.00 -101.00
v 161.00 70.00 -101.00
v 161.00 70.00 -19.00
v 79.00 70.00 -19.00
f 73 74 75
f 73 75 76
f 77 79 78
f 77 80 79
f 73 77 78
f 73 78 74
f 76 75 79
f 76 79 80
f 73 76 80
f 73 80 77
f 75 74 78
f 75 78 79
o express
v 190.00 30.00 -110.00
v 290.00 30.00 -110.00
v 290.00 30.00 -10.00
v 190.00 30.00 -10.00
v 199.00 70.00 -101.00
v 281.00 70.00 -101.00
v 281.00 70.00 -19.00
v 199.00 70.00 -19.00
f 81 82 83
f 81 83 84
f 85 87 86
f 85 88 87
f 81 85 86
f 81 86 82
f 84 83 87
f 84 87 88
f 81 84 88
f 81 88 85
f 83 82 86
f 83 86 87
o postgres
v -290.00 30.00 10.00
v -190.00 30.00 10.00
v -190.00 30.00 110.00
v -290.00 30.00 110.00
v -281.00 70.00 19.00
v -199.00 70.00 19.00
v -199.00 70.00 101.00
v -281.00 70.00 101.00
f 89 90 91
f 89 91 92
f 93 95 94
f 93 96 95
f 89 93 94
f 89 94 90
f 92 91 95
f 92 95 96
f 89 92 96
f 89 96 93
f 91 90 94
f 91 94 95
o mongodb
v -170.00 30.00 10.00
v -70.00 30.00 10.00
v -70.00 30.00 110.00
v -170.00 30.00 110.00
v -161.00 70.00 19.00
v -79.00 70.00 19.00
v -79.00 70.00 101.00
v -161.00 70.00 101.00
f 97 98 99
f 97 99 100
f 101 103 102
f 101 104 103
f 97 101 102
f 97 102 98
f 100 99 103
f 100 103 104
f 97 100 104
f 97 104 101
f 99 98 102
f 99 102 103
o git
v -50.00 30.00 10.00
v 50.00 30.00 10.00
v 50.00 30.00 110.00
v -50.00 30.00 110.00
v -41.00 70.00 19.00
v 41.00 70.00 19.00
v 41.00 70.00 101.00
v -41.00 70.00 101.00
f 105 106 107
f 105 107 108
f 109 111 110
f 109 112 111
f 105 109 110
f 105 110 106
f 108 107 111
f 108 111 112
f 105 108 112
f 105 112 109
f 107 106 110
f 107 110 111
o github
v 70.00 30.00 10.00
v 170.00 30.00 10.00
v 170.00 30.00 110.00
v 70.00 30.00 110.00
v 79.00 70.00 19.00
v 161.00 70.00 19.00
v 161.00 70.00 101.00
v 79.00 70.00 101.00
f 113 114 115
f 113 115 116
f 117 119 118
f 117 120 119
f 113 117 118
f 113 118 114
f 116 115 119
f 116 119 120
f 113 116 120
f 113 120 117
f 115 114 118
f 115 118 119
o docker
v 190.00 30.00 10.00
v 290.00 30.00 10.00
v 290.00 30.00 110.00
v 190.00 30.00 110.00
v 199.00 70.00 19.00
v 281.00 70.00 19.00
v 281.00 70.00 101.00
v 199.00 70.00 101.00
f 121 122 123
f 121 123 124
f 125 127 126
f 125 128 127
f 121 125 126
f 121 126 122
f 124 123 127
f 124 127 128
f 121 124 128
f 121 128 125
f 123 122 126
f 123 126 127
o linux
v -290.00 30.00 130.00
v -190.00 30.00 130.00
v -190.00 30.00 230.00
v -290.00 30.00 230.00
v -281.00 70.00 139.00
v -199.00 70.00 139.00
v -199.00 70.00 221.00
v -281.00 70.00 221.00
f 129 130 131
f 129 131 132
f 133 135 134
f 133 136 135
f 129 133 134
f 129 134 130
f 132 131 135
f 132 135 136
f 129 132 136
f 129 136 133
f 131 130 134
f 131 134 135
o nginx
v -170.00 30.00 130.00
v -70.00 30.00 130.00
v -70.00 30.00 230.00
v -170.00 30.00 230.00
v -161.00 70.00 139.00
v -79.00 70.00 139.00
v -79.00 70.00 221.00
v -161.00 70.00 221.00
f 137 138 139
f 137 139 140
f 141 143 142
f 141 144 143
f 137 141 142
f 137 142 138
f 140 139 143
f 140 143 144
f 137 140 144
f 137 144 141
f 139 138 142
f 139 142 143
o aws
v -50.00 30.00 130.00
v 50.00 30.00 130.00
v 50.00 30.00 230.00
v -50.00 30.00 230.00
v -41.00 70.00 139.00
v 41.00 70.00 139.00
v 41.00 70.00 221.00
v -41.00 70.00 221.00
f 145 146 147
f 145 147 148
f 149 151 150
f 149 152 151
f 145 149 150
f 145 150 146
f 148 147 151
f 148 151 152
f 145 148 152
f 145 152 149
f 147 146 150
f 147 150 151
o vim
v 70.00 30.00 130.00
v 170.00 30.00 130.00
v 170.00 30.00 230.00
v 70.00 30.00 230.00
v 79.00 70.00 139.00
v 161.00 70.00 139.00
v 161.00 70.00 221.00
v 79.00 70.00 221.00
f 153 154 155
f 153 155 156
f 157 159 158
f 157 160 159
f 153 157 158
f 153 158 154
f 156 155 159
f 156 159 160
f 153 156 160
f 153 160 157
f 155 154 158
f 155 158 159
o vercel
v 190.00 30.00 130.00
v 290.00 30.00 130.00
v 290.00 30.00 230.00
v 190.00 30.00 230.00
v 199.00 70.00 139.00
v 281.00 70.00 139.00
v 281.00 70.00 221.00
v 199.00 70.00 221.00
f 161 162 163
f 161 163 164
f 165 167 166
f 165 168 167
f 161 165 166
f 161 166 162
f 164 163 167
f 164 167 168
f 161 164 168
f 161 168 165
f 163 162 166
f 163 166 167
