<svg xmlns="http://www.w3.org/2000/svg" viewBox="0 0 600 600" fill="none" shape-rendering="auto"><metadata xmlns:rdf="http://www.w3.org/1999/02/22-rdf-syntax-ns#" xmlns:xsi="http://www.w3.org/2001/XMLSchema-instance" xmlns:dc="http://purl.org/dc/elements/1.1/" xmlns:dcterms="http://purl.org/dc/terms/"><rdf:RDF><rdf:Description><dc:title>Lorelei Neutral</dc:title><dc:creator>Lisa Wischofsky</dc:creator><dc:source xsi:type="dcterms:URI">https://www.figma.com/community/file/1198749693280469639</dc:source><dcterms:license xsi:type="dcterms:URI">https://creativecommons.org/publicdomain/zero/1.0/</dcterms:license><dc:rights>Remix of „Lorelei Neutral” (https://www.figma.com/community/file/1198749693280469639) by „Lisa Wischofsky”, licensed under „CC0 1.0” (https://creativecommons.org/publicdomain/zero/1.0/)</dc:rights></rdf:Description></rdf:RDF></metadata><mask id="viewboxMask"><rect width="600" height="600" rx="0" ry="0" x="0" y="0" fill="#fff" /></mask><g mask="url(#viewboxMask)"><g transform="translate(-246 -234)"><path d="M533 358c6 2 9 8 10 14 0 8-3 16-7 22-3 3-7 4-10 1-4-3-2-10-2-15l-13 10c-6 4-13 7-20 9-9 4-19 5-30 8l-25 8c-8 3-15 8-22 12l-25 17c-5 3-8 7-11 12-2-4-1-8 1-11a401 401 0 0 1 35-29c16-13 36-21 55-28l28-11c8-4 14-11 21-16 5-2 10-4 15-3ZM626 376l6 7c17 7 33 7 49 16 4 2 7 6 9 10s1 8-2 12l-16-6c-12-6-24-7-36-11-7-3-14-4-19-10-4 8-4 17-8 26-1 1-1 4-4 3l-1-8 2-11c1-8 4-16 7-23 2-6 8-8 13-5Z" fill="#000000"/></g><g transform="translate(-246 -234)"><path d="M681 473c6 2 13 7 15 14 2 4 1 9-3 12-5 2-10 0-12-4-3-3-7-7-12-8-4-1-9 0-13 2l4 5c4 6 5 14 5 21s-2 14-4 20c3-1 6-4 10-4 0 4 0 7-2 10-5 6-13 10-21 11s-17 2-24-3c-5-3-5-8-5-13l-2-6c0-10 4-19 9-27 7-11 17-20 29-26 8-4 17-6 26-4ZM473 519c14 2 28 6 42 11 3 1 6 1 8 4 4 3 4 9 0 12-3 2-7 2-11 2h-45c-13 0-28 1-41-1l-7-3-14 2c-2 0-5 0-6-2-3-2-2-6 0-8s6-3 9-4c9-2 18-4 27-4l9-1-16-1c-6-1-13 0-19-2-2 0-3-1-3-3s2-2 3-3l15-2c16-1 33 0 49 3Z" fill="#000000"/></g><g transform="translate(-246 -234)"></g><g transform="translate(-246 -234)"><path d="M465 666c10-1 20 1 30 2 16 1 31 5 47 6h25l23-2c11-2 22-4 33-3 6 0 12 2 16 6 4 3 7 9 6 14-1 7-6 13-11 18l-24 13c-10 3-19 6-29 4-4-1-6-3-8-6 8-4 16-3 24-5 12-3 24-8 33-16 3-2 6-6 7-10s-2-6-5-8c-6-2-13-2-19-1-16 2-32 6-48 7l-28-1c-14-1-28-5-42-7l-27-2c-2 0-4-1-6 1-1 3 0 8 2 11 5 6 12 9 19 13l19 8c3 1 7 2 8 5 2 7 1 14 4 21 1 2 3 4 6 5 6-5 4-11 8-17 2-4 4-8 9-8 9-1 18 1 27 2 2 1 4 1 5 3 0 3-3 3-5 3-8 1-18-2-26-2-3-1-3 2-5 3-3 6-2 12-6 16-1 3-5 5-8 5-4-1-8-4-10-7-4-6-4-14-5-21-7-1-14-2-20-5l-17-8c-6-4-10-10-12-16v-14c2-4 6-6 10-7Z" fill="#000000"/></g><g transform="translate(-246 -234)"><path d="M607 606c0 3-2 6-4 9-4 6-11 10-18 12-5 1-9-2-13 0-4 0-8 1-12-1-2-1-2-4 0-6 3-4 8-7 12-7 4-1 7-1 10 2l1 7c5-2 7-5 11-8l13-8Z" fill="#000000"/></g><g transform="translate(-246 -234)"></g></g></svg>